<?xml version="1.0" encoding="UTF-8" standalone="no"?><svg xmlns="http://www.w3.org/2000/svg" xmlns:xlink="http://www.w3.org/1999/xlink" contentScriptType="application/ecmascript" contentStyleType="text/css" height="94px" preserveAspectRatio="none" style="width:291px;height:94px;" version="1.1" viewBox="0 0 291 94" width="291px" zoomAndPan="magnify"><defs><filter height="300%" id="f1on6qou7afct5" width="300%" x="-1" y="-1"><feGaussianBlur result="blurOut" stdDeviation="2.0"/><feColorMatrix in="blurOut" result="blurOut2" type="matrix" values="0 0 0 0 0 0 0 0 0 0 0 0 0 0 0 0 0 0 .4 0"/><feOffset dx="4.0" dy="4.0" in="blurOut2" result="blurOut3"/><feBlend in="SourceGraphic" in2="blurOut3" mode="normal"/></filter></defs><g><!--MD5=[c54ba4f61d01a424743e5a1fa0f9e38e]
class Dummy--><rect codeLine="1" fill="#FEFECE" filter="url(#f1on6qou7afct5)" height="73.6094" id="Dummy" style="stroke: #A80036; stroke-width: 1.5;" width="98" x="7" y="7"/><ellipse cx="31.45" cy="23" fill="#ADD1B2" rx="11" ry="11" style="stroke: #A80036; stroke-width: 1.0;"/><path d="M33.7938,18.6719 C32.8563,18.2344 32.2625,18.0938 31.3875,18.0938 C28.7625,18.0938 26.7625,20.1719 26.7625,22.8906 L26.7625,24.0156 C26.7625,26.5938 28.8719,28.4844 31.7625,28.4844 C32.9813,28.4844 34.1375,28.1875 34.8875,27.6406 C35.4656,27.2344 35.7938,26.7813 35.7938,26.3906 C35.7938,25.9375 35.4031,25.5469 34.9344,25.5469 C34.7156,25.5469 34.5125,25.625 34.325,25.8125 C33.8719,26.2969 33.8719,26.2969 33.6844,26.3906 C33.2625,26.6563 32.575,26.7813 31.8094,26.7813 C29.7625,26.7813 28.4656,25.6875 28.4656,23.9844 L28.4656,22.8906 C28.4656,21.1094 29.7156,19.7969 31.45,19.7969 C32.0281,19.7969 32.6375,19.9531 33.1063,20.2031 C33.5906,20.4844 33.7625,20.7031 33.8563,21.1094 C33.9188,21.5156 33.95,21.6406 34.0906,21.7656 C34.2313,21.9063 34.4656,22.0156 34.6844,22.0156 C34.95,22.0156 35.2156,21.875 35.3875,21.6563 C35.4969,21.5 35.5281,21.3125 35.5281,20.8906 L35.5281,19.4688 C35.5281,19.0313 35.5125,18.9063 35.4188,18.75 C35.2625,18.4844 34.9813,18.3438 34.6844,18.3438 C34.3875,18.3438 34.1844,18.4375 33.9656,18.75 L33.7938,18.6719 Z "/><text fill="#000000" font-family="sans-serif" font-size="12" lengthAdjust="spacingAndGlyphs" textLength="45" x="47.55" y="27.1543">Dummy</text><line style="stroke: #A80036; stroke-width: 1.5;" x1="8" x2="104" y1="39" y2="39"/><text fill="#000000" font-family="sans-serif" font-size="11" lengthAdjust="spacingAndGlyphs" textLength="62" x="13" y="53.2104">String data</text><line style="stroke: #A80036; stroke-width: 1.5;" x1="8" x2="104" y1="59.8047" y2="59.8047"/><text fill="#000000" font-family="sans-serif" font-size="11" lengthAdjust="spacingAndGlyphs" textLength="86" x="13" y="74.0151">void methods()</text><!--MD5=[bd6e5d4dd3d7814cbdc3148d3ed1ec4b]
class Flight--><rect codeLine="6" fill="#FEFECE" filter="url(#f1on6qou7afct5)" height="73.6094" id="Flight" style="stroke: #A80036; stroke-width: 1.5;" width="137" x="140.5" y="7"/><ellipse cx="188.75" cy="23" fill="#ADD1B2" rx="11" ry="11" style="stroke: #A80036; stroke-width: 1.0;"/><path d="M191.0938,18.6719 C190.1563,18.2344 189.5625,18.0938 188.6875,18.0938 C186.0625,18.0938 184.0625,20.1719 184.0625,22.8906 L184.0625,24.0156 C184.0625,26.5938 186.1719,28.4844 189.0625,28.4844 C190.2813,28.4844 191.4375,28.1875 192.1875,27.6406 C192.7656,27.2344 193.0938,26.7813 193.0938,26.3906 C193.0938,25.9375 192.7031,25.5469 192.2344,25.5469 C192.0156,25.5469 191.8125,25.625 191.625,25.8125 C191.1719,26.2969 191.1719,26.2969 190.9844,26.3906 C190.5625,26.6563 189.875,26.7813 189.1094,26.7813 C187.0625,26.7813 185.7656,25.6875 185.7656,23.9844 L185.7656,22.8906 C185.7656,21.1094 187.0156,19.7969 188.75,19.7969 C189.3281,19.7969 189.9375,19.9531 190.4063,20.2031 C190.8906,20.4844 191.0625,20.7031 191.1563,21.1094 C191.2188,21.5156 191.25,21.6406 191.3906,21.7656 C191.5313,21.9063 191.7656,22.0156 191.9844,22.0156 C192.25,22.0156 192.5156,21.875 192.6875,21.6563 C192.7969,21.5 192.8281,21.3125 192.8281,20.8906 L192.8281,19.4688 C192.8281,19.0313 192.8125,18.9063 192.7188,18.75 C192.5625,18.4844 192.2813,18.3438 191.9844,18.3438 C191.6875,18.3438 191.4844,18.4375 191.2656,18.75 L191.0938,18.6719 Z "/><text fill="#000000" font-family="sans-serif" font-size="12" lengthAdjust="spacingAndGlyphs" textLength="32" x="209.25" y="27.1543">Flight</text><line style="stroke: #A80036; stroke-width: 1.5;" x1="141.5" x2="276.5" y1="39" y2="39"/><text fill="#000000" font-family="sans-serif" font-size="11" lengthAdjust="spacingAndGlyphs" textLength="125" x="146.5" y="53.2104">flightNumber : Integer</text><text fill="#000000" font-family="sans-serif" font-size="11" lengthAdjust="spacingAndGlyphs" textLength="124" x="146.5" y="66.0151">departureTime : Date</text><line style="stroke: #A80036; stroke-width: 1.5;" x1="141.5" x2="276.5" y1="72.6094" y2="72.6094"/><!--MD5=[9b6158038ef563ebece9a37656184336]
@startuml
class Dummy {
  String data
  void methods()
}

class Flight {
   flightNumber : Integer
   departureTime : Date
}
@enduml

PlantUML version 1.2020.18(Wed Sep 30 19:40:44 UTC 2020)
(GPL source distribution)
Java Runtime: Java(TM) SE Runtime Environment
JVM: Java HotSpot(TM) 64-Bit Server VM
Default Encoding: UTF-8
Language: en
Country: US
--></g></svg>