<?xml version="1.0" encoding="UTF-8" standalone="no"?><svg xmlns="http://www.w3.org/2000/svg" xmlns:xlink="http://www.w3.org/1999/xlink" contentScriptType="application/ecmascript" contentStyleType="text/css" height="199px" preserveAspectRatio="none" style="width:336px;height:199px;" version="1.1" viewBox="0 0 336 199" width="336px" zoomAndPan="magnify"><defs><filter height="300%" id="f6n2qqf75vcp3" width="300%" x="-1" y="-1"><feGaussianBlur result="blurOut" stdDeviation="2.0"/><feColorMatrix in="blurOut" result="blurOut2" type="matrix" values="0 0 0 0 0 0 0 0 0 0 0 0 0 0 0 0 0 0 .4 0"/><feOffset dx="4.0" dy="4.0" in="blurOut2" result="blurOut3"/><feBlend in="SourceGraphic" in2="blurOut3" mode="normal"/></filter></defs><g><!--MD5=[b2f23c4a06b9bc4c947f037f864aea3c]
class Class01--><rect fill="#FEFECE" filter="url(#f6n2qqf75vcp3)" height="48" id="Class01" style="stroke: #A80036; stroke-width: 1.5;" width="79" x="8.2406" y="7"/><ellipse cx="23.2406" cy="23" fill="#ADD1B2" rx="11" ry="11" style="stroke: #A80036; stroke-width: 1.0;"/><path d="M25.5844,18.6719 C24.6469,18.2344 24.0531,18.0938 23.1781,18.0938 C20.5531,18.0938 18.5531,20.1719 18.5531,22.8906 L18.5531,24.0156 C18.5531,26.5938 20.6625,28.4844 23.5531,28.4844 C24.7719,28.4844 25.9281,28.1875 26.6781,27.6406 C27.2563,27.2344 27.5844,26.7813 27.5844,26.3906 C27.5844,25.9375 27.1938,25.5469 26.725,25.5469 C26.5063,25.5469 26.3031,25.625 26.1156,25.8125 C25.6625,26.2969 25.6625,26.2969 25.475,26.3906 C25.0531,26.6563 24.3656,26.7813 23.6,26.7813 C21.5531,26.7813 20.2563,25.6875 20.2563,23.9844 L20.2563,22.8906 C20.2563,21.1094 21.5063,19.7969 23.2406,19.7969 C23.8188,19.7969 24.4281,19.9531 24.8969,20.2031 C25.3813,20.4844 25.5531,20.7031 25.6469,21.1094 C25.7094,21.5156 25.7406,21.6406 25.8813,21.7656 C26.0219,21.9063 26.2563,22.0156 26.475,22.0156 C26.7406,22.0156 27.0063,21.875 27.1781,21.6563 C27.2875,21.5 27.3188,21.3125 27.3188,20.8906 L27.3188,19.4688 C27.3188,19.0313 27.3031,18.9063 27.2094,18.75 C27.0531,18.4844 26.7719,18.3438 26.475,18.3438 C26.1781,18.3438 25.975,18.4375 25.7563,18.75 L25.5844,18.6719 Z "/><text fill="#000000" font-family="sans-serif" font-size="12" lengthAdjust="spacingAndGlyphs" textLength="47" x="37.2406" y="27.1543">Class01</text><line style="stroke: #A80036; stroke-width: 1.5;" x1="9.2406" x2="86.2406" y1="39" y2="39"/><line style="stroke: #A80036; stroke-width: 1.5;" x1="9.2406" x2="86.2406" y1="47" y2="47"/><!--MD5=[67b7f66b9c6b27d60ed6d0424460c06c]
class Class02--><rect fill="#FEFECE" filter="url(#f6n2qqf75vcp3)" height="48" id="Class02" style="stroke: #A80036; stroke-width: 1.5;" width="80" x="7.7406" y="132"/><ellipse cx="22.7406" cy="148" fill="#ADD1B2" rx="11" ry="11" style="stroke: #A80036; stroke-width: 1.0;"/><path d="M25.0844,143.6719 C24.1469,143.2344 23.5531,143.0938 22.6781,143.0938 C20.0531,143.0938 18.0531,145.1719 18.0531,147.8906 L18.0531,149.0156 C18.0531,151.5938 20.1625,153.4844 23.0531,153.4844 C24.2719,153.4844 25.4281,153.1875 26.1781,152.6406 C26.7563,152.2344 27.0844,151.7813 27.0844,151.3906 C27.0844,150.9375 26.6938,150.5469 26.225,150.5469 C26.0063,150.5469 25.8031,150.625 25.6156,150.8125 C25.1625,151.2969 25.1625,151.2969 24.975,151.3906 C24.5531,151.6563 23.8656,151.7813 23.1,151.7813 C21.0531,151.7813 19.7563,150.6875 19.7563,148.9844 L19.7563,147.8906 C19.7563,146.1094 21.0063,144.7969 22.7406,144.7969 C23.3188,144.7969 23.9281,144.9531 24.3969,145.2031 C24.8813,145.4844 25.0531,145.7031 25.1469,146.1094 C25.2094,146.5156 25.2406,146.6406 25.3813,146.7656 C25.5219,146.9063 25.7563,147.0156 25.975,147.0156 C26.2406,147.0156 26.5063,146.875 26.6781,146.6563 C26.7875,146.5 26.8188,146.3125 26.8188,145.8906 L26.8188,144.4688 C26.8188,144.0313 26.8031,143.9063 26.7094,143.75 C26.5531,143.4844 26.2719,143.3438 25.975,143.3438 C25.6781,143.3438 25.475,143.4375 25.2563,143.75 L25.0844,143.6719 Z "/><text fill="#000000" font-family="sans-serif" font-size="12" lengthAdjust="spacingAndGlyphs" textLength="48" x="36.7406" y="152.1543">Class02</text><line style="stroke: #A80036; stroke-width: 1.5;" x1="8.7406" x2="86.7406" y1="164" y2="164"/><line style="stroke: #A80036; stroke-width: 1.5;" x1="8.7406" x2="86.7406" y1="172" y2="172"/><!--MD5=[e34eefe962fcadefcbf83660cc436420]
class Class03--><rect fill="#FEFECE" filter="url(#f6n2qqf75vcp3)" height="48" id="Class03" style="stroke: #A80036; stroke-width: 1.5;" width="80" x="122.7406" y="7"/><ellipse cx="137.7406" cy="23" fill="#ADD1B2" rx="11" ry="11" style="stroke: #A80036; stroke-width: 1.0;"/><path d="M140.0844,18.6719 C139.1469,18.2344 138.5531,18.0938 137.6781,18.0938 C135.0531,18.0938 133.0531,20.1719 133.0531,22.8906 L133.0531,24.0156 C133.0531,26.5938 135.1625,28.4844 138.0531,28.4844 C139.2719,28.4844 140.4281,28.1875 141.1781,27.6406 C141.7563,27.2344 142.0844,26.7813 142.0844,26.3906 C142.0844,25.9375 141.6938,25.5469 141.225,25.5469 C141.0063,25.5469 140.8031,25.625 140.6156,25.8125 C140.1625,26.2969 140.1625,26.2969 139.975,26.3906 C139.5531,26.6563 138.8656,26.7813 138.1,26.7813 C136.0531,26.7813 134.7563,25.6875 134.7563,23.9844 L134.7563,22.8906 C134.7563,21.1094 136.0063,19.7969 137.7406,19.7969 C138.3188,19.7969 138.9281,19.9531 139.3969,20.2031 C139.8813,20.4844 140.0531,20.7031 140.1469,21.1094 C140.2094,21.5156 140.2406,21.6406 140.3813,21.7656 C140.5219,21.9063 140.7563,22.0156 140.975,22.0156 C141.2406,22.0156 141.5063,21.875 141.6781,21.6563 C141.7875,21.5 141.8188,21.3125 141.8188,20.8906 L141.8188,19.4688 C141.8188,19.0313 141.8031,18.9063 141.7094,18.75 C141.5531,18.4844 141.2719,18.3438 140.975,18.3438 C140.6781,18.3438 140.475,18.4375 140.2563,18.75 L140.0844,18.6719 Z "/><text fill="#000000" font-family="sans-serif" font-size="12" lengthAdjust="spacingAndGlyphs" textLength="48" x="151.7406" y="27.1543">Class03</text><line style="stroke: #A80036; stroke-width: 1.5;" x1="123.7406" x2="201.7406" y1="39" y2="39"/><line style="stroke: #A80036; stroke-width: 1.5;" x1="123.7406" x2="201.7406" y1="47" y2="47"/><!--MD5=[d53a23475d458e69a9e37a48405189e2]
class Class04--><rect fill="#FEFECE" filter="url(#f6n2qqf75vcp3)" height="48" id="Class04" style="stroke: #A80036; stroke-width: 1.5;" width="80" x="122.7406" y="132"/><ellipse cx="137.7406" cy="148" fill="#ADD1B2" rx="11" ry="11" style="stroke: #A80036; stroke-width: 1.0;"/><path d="M140.0844,143.6719 C139.1469,143.2344 138.5531,143.0938 137.6781,143.0938 C135.0531,143.0938 133.0531,145.1719 133.0531,147.8906 L133.0531,149.0156 C133.0531,151.5938 135.1625,153.4844 138.0531,153.4844 C139.2719,153.4844 140.4281,153.1875 141.1781,152.6406 C141.7563,152.2344 142.0844,151.7813 142.0844,151.3906 C142.0844,150.9375 141.6938,150.5469 141.225,150.5469 C141.0063,150.5469 140.8031,150.625 140.6156,150.8125 C140.1625,151.2969 140.1625,151.2969 139.975,151.3906 C139.5531,151.6563 138.8656,151.7813 138.1,151.7813 C136.0531,151.7813 134.7563,150.6875 134.7563,148.9844 L134.7563,147.8906 C134.7563,146.1094 136.0063,144.7969 137.7406,144.7969 C138.3188,144.7969 138.9281,144.9531 139.3969,145.2031 C139.8813,145.4844 140.0531,145.7031 140.1469,146.1094 C140.2094,146.5156 140.2406,146.6406 140.3813,146.7656 C140.5219,146.9063 140.7563,147.0156 140.975,147.0156 C141.2406,147.0156 141.5063,146.875 141.6781,146.6563 C141.7875,146.5 141.8188,146.3125 141.8188,145.8906 L141.8188,144.4688 C141.8188,144.0313 141.8031,143.9063 141.7094,143.75 C141.5531,143.4844 141.2719,143.3438 140.975,143.3438 C140.6781,143.3438 140.475,143.4375 140.2563,143.75 L140.0844,143.6719 Z "/><text fill="#000000" font-family="sans-serif" font-size="12" lengthAdjust="spacingAndGlyphs" textLength="48" x="151.7406" y="152.1543">Class04</text><line style="stroke: #A80036; stroke-width: 1.5;" x1="123.7406" x2="201.7406" y1="164" y2="164"/><line style="stroke: #A80036; stroke-width: 1.5;" x1="123.7406" x2="201.7406" y1="172" y2="172"/><!--MD5=[21c802bf509ebb275d96eccffaf3e0b6]
class Class05--><rect fill="#FEFECE" filter="url(#f6n2qqf75vcp3)" height="48" id="Class05" style="stroke: #A80036; stroke-width: 1.5;" width="80" x="237.7406" y="7"/><ellipse cx="252.7406" cy="23" fill="#ADD1B2" rx="11" ry="11" style="stroke: #A80036; stroke-width: 1.0;"/><path d="M255.0844,18.6719 C254.1469,18.2344 253.5531,18.0938 252.6781,18.0938 C250.0531,18.0938 248.0531,20.1719 248.0531,22.8906 L248.0531,24.0156 C248.0531,26.5938 250.1625,28.4844 253.0531,28.4844 C254.2719,28.4844 255.4281,28.1875 256.1781,27.6406 C256.7563,27.2344 257.0844,26.7813 257.0844,26.3906 C257.0844,25.9375 256.6938,25.5469 256.225,25.5469 C256.0063,25.5469 255.8031,25.625 255.6156,25.8125 C255.1625,26.2969 255.1625,26.2969 254.975,26.3906 C254.5531,26.6563 253.8656,26.7813 253.1,26.7813 C251.0531,26.7813 249.7563,25.6875 249.7563,23.9844 L249.7563,22.8906 C249.7563,21.1094 251.0063,19.7969 252.7406,19.7969 C253.3188,19.7969 253.9281,19.9531 254.3969,20.2031 C254.8813,20.4844 255.0531,20.7031 255.1469,21.1094 C255.2094,21.5156 255.2406,21.6406 255.3813,21.7656 C255.5219,21.9063 255.7563,22.0156 255.975,22.0156 C256.2406,22.0156 256.5063,21.875 256.6781,21.6563 C256.7875,21.5 256.8188,21.3125 256.8188,20.8906 L256.8188,19.4688 C256.8188,19.0313 256.8031,18.9063 256.7094,18.75 C256.5531,18.4844 256.2719,18.3438 255.975,18.3438 C255.6781,18.3438 255.475,18.4375 255.2563,18.75 L255.0844,18.6719 Z "/><text fill="#000000" font-family="sans-serif" font-size="12" lengthAdjust="spacingAndGlyphs" textLength="48" x="266.7406" y="27.1543">Class05</text><line style="stroke: #A80036; stroke-width: 1.5;" x1="238.7406" x2="316.7406" y1="39" y2="39"/><line style="stroke: #A80036; stroke-width: 1.5;" x1="238.7406" x2="316.7406" y1="47" y2="47"/><!--MD5=[247dd373b5711b206209116e093ec52c]
class Class06--><rect fill="#FEFECE" filter="url(#f6n2qqf75vcp3)" height="48" id="Class06" style="stroke: #A80036; stroke-width: 1.5;" width="80" x="237.7406" y="132"/><ellipse cx="252.7406" cy="148" fill="#ADD1B2" rx="11" ry="11" style="stroke: #A80036; stroke-width: 1.0;"/><path d="M255.0844,143.6719 C254.1469,143.2344 253.5531,143.0938 252.6781,143.0938 C250.0531,143.0938 248.0531,145.1719 248.0531,147.8906 L248.0531,149.0156 C248.0531,151.5938 250.1625,153.4844 253.0531,153.4844 C254.2719,153.4844 255.4281,153.1875 256.1781,152.6406 C256.7563,152.2344 257.0844,151.7813 257.0844,151.3906 C257.0844,150.9375 256.6938,150.5469 256.225,150.5469 C256.0063,150.5469 255.8031,150.625 255.6156,150.8125 C255.1625,151.2969 255.1625,151.2969 254.975,151.3906 C254.5531,151.6563 253.8656,151.7813 253.1,151.7813 C251.0531,151.7813 249.7563,150.6875 249.7563,148.9844 L249.7563,147.8906 C249.7563,146.1094 251.0063,144.7969 252.7406,144.7969 C253.3188,144.7969 253.9281,144.9531 254.3969,145.2031 C254.8813,145.4844 255.0531,145.7031 255.1469,146.1094 C255.2094,146.5156 255.2406,146.6406 255.3813,146.7656 C255.5219,146.9063 255.7563,147.0156 255.975,147.0156 C256.2406,147.0156 256.5063,146.875 256.6781,146.6563 C256.7875,146.5 256.8188,146.3125 256.8188,145.8906 L256.8188,144.4688 C256.8188,144.0313 256.8031,143.9063 256.7094,143.75 C256.5531,143.4844 256.2719,143.3438 255.975,143.3438 C255.6781,143.3438 255.475,143.4375 255.2563,143.75 L255.0844,143.6719 Z "/><text fill="#000000" font-family="sans-serif" font-size="12" lengthAdjust="spacingAndGlyphs" textLength="48" x="266.7406" y="152.1543">Class06</text><line style="stroke: #A80036; stroke-width: 1.5;" x1="238.7406" x2="316.7406" y1="164" y2="164"/><line style="stroke: #A80036; stroke-width: 1.5;" x1="238.7406" x2="316.7406" y1="172" y2="172"/><!--MD5=[3ab52052fd7925c5f64fca5d41d6866e]
reverse link Class01 to Class02--><path codeLine="1" d="M47.7406,68.214 C47.7406,88.8329 47.7406,114.0433 47.7406,131.9684 " fill="none" id="Class01&lt;-Class02" style="stroke: #A80036; stroke-width: 1.0;"/><polygon fill="#A80036" points="47.7406,55.135,43.7406,61.135,47.7406,67.135,51.7406,61.135,47.7406,55.135" style="stroke: #A80036; stroke-width: 1.0;"/><text fill="#000000" font-family="sans-serif" font-size="13" lengthAdjust="spacingAndGlyphs" textLength="54" x="48.7406" y="98.0669">contains</text><text fill="#000000" font-family="sans-serif" font-size="13" lengthAdjust="spacingAndGlyphs" textLength="8" x="38.7656" y="74.9291">1</text><text fill="#000000" font-family="sans-serif" font-size="13" lengthAdjust="spacingAndGlyphs" textLength="37" x="6" y="120.9723">many</text><!--MD5=[0815ca07f8d628dc1a46a48ef0cd4c01]
reverse link Class03 to Class04--><path codeLine="3" d="M162.7406,68.214 C162.7406,88.8329 162.7406,114.0433 162.7406,131.9684 " fill="none" id="Class03&lt;-Class04" style="stroke: #A80036; stroke-width: 1.0;"/><polygon fill="#FFFFFF" points="162.7406,55.135,158.7406,61.135,162.7406,67.135,166.7406,61.135,162.7406,55.135" style="stroke: #A80036; stroke-width: 1.0;"/><text fill="#000000" font-family="sans-serif" font-size="13" lengthAdjust="spacingAndGlyphs" textLength="77" x="163.7406" y="98.0669">aggregation</text><!--MD5=[ac2e3bbd3e9b11a609828bf89cc0adda]
link Class05 to Class06--><path codeLine="5" d="M277.7406,55.135 C277.7406,75.494 277.7406,105.1907 277.7406,126.908 " fill="none" id="Class05-&gt;Class06" style="stroke: #A80036; stroke-width: 1.0;"/><polygon fill="#A80036" points="277.7406,131.9684,281.7406,122.9684,277.7406,126.9684,273.7406,122.9684,277.7406,131.9684" style="stroke: #A80036; stroke-width: 1.0;"/><text fill="#000000" font-family="sans-serif" font-size="13" lengthAdjust="spacingAndGlyphs" textLength="8" x="268.7156" y="120.9723">1</text><!--MD5=[e0df1ec415b09e9ece5a5c145f515d44]
@startuml
Class01 "1" *- - "many" Class02 : contains

Class03 o- - Class04 : aggregation

Class05 - -> "1" Class06
@enduml

PlantUML version 1.2020.16beta7(Unknown compile time)
(GPL source distribution)
Java Runtime: Java(TM) SE Runtime Environment
JVM: Java HotSpot(TM) 64-Bit Server VM
Default Encoding: UTF-8
Language: en
Country: US
--></g></svg>