<?xml version="1.0" encoding="UTF-8" standalone="no"?><svg xmlns="http://www.w3.org/2000/svg" xmlns:xlink="http://www.w3.org/1999/xlink" contentScriptType="application/ecmascript" contentStyleType="text/css" height="1138px" preserveAspectRatio="none" style="width:487px;height:1138px;" version="1.1" viewBox="0 0 487 1138" width="487px" zoomAndPan="magnify"><defs><filter height="300%" id="fbjgb33lp05d3" width="300%" x="-1" y="-1"><feGaussianBlur result="blurOut" stdDeviation="2.0"/><feColorMatrix in="blurOut" result="blurOut2" type="matrix" values="0 0 0 0 0 0 0 0 0 0 0 0 0 0 0 0 0 0 .4 0"/><feOffset dx="4.0" dy="4.0" in="blurOut2" result="blurOut3"/><feBlend in="SourceGraphic" in2="blurOut3" mode="normal"/></filter></defs><g><text fill="#000000" font-family="sans-serif" font-size="18" lengthAdjust="spacingAndGlyphs" textLength="163" x="153.3703" y="16.708">Servlet Container</text><ellipse cx="153.2406" cy="36.9531" fill="#000000" filter="url(#fbjgb33lp05d3)" rx="10" ry="10" style="stroke: none; stroke-width: 1.0;"/><rect fill="#FEFECE" filter="url(#fbjgb33lp05d3)" height="33.9688" rx="12.5" ry="12.5" style="stroke: #A80036; stroke-width: 1.5;" width="193" x="56.7406" y="87.9531"/><text fill="#000000" font-family="sans-serif" font-size="12" lengthAdjust="spacingAndGlyphs" textLength="173" x="66.7406" y="109.0918">ClickServlet.handleRequest()</text><rect fill="#FEFECE" filter="url(#fbjgb33lp05d3)" height="33.9688" rx="12.5" ry="12.5" style="stroke: #A80036; stroke-width: 1.5;" width="78" x="114.2406" y="162.9531"/><text fill="#000000" font-family="sans-serif" font-size="12" lengthAdjust="spacingAndGlyphs" textLength="58" x="124.2406" y="184.0918">new Page</text><polygon fill="#FEFECE" filter="url(#fbjgb33lp05d3)" points="153.2406,242.9531,165.2406,254.9531,153.2406,266.9531,141.2406,254.9531,153.2406,242.9531" style="stroke: #A80036; stroke-width: 1.5;"/><rect fill="#FEFECE" filter="url(#fbjgb33lp05d3)" height="33.9688" rx="12.5" ry="12.5" style="stroke: #A80036; stroke-width: 1.5;" width="94" x="211.2406" y="237.9531"/><text fill="#000000" font-family="sans-serif" font-size="12" lengthAdjust="spacingAndGlyphs" textLength="74" x="221.2406" y="259.0918">Page.onInit()</text><polygon fill="#FEFECE" filter="url(#fbjgb33lp05d3)" points="270.2406,317.9531,282.2406,329.9531,270.2406,341.9531,258.2406,329.9531,270.2406,317.9531" style="stroke: #A80036; stroke-width: 1.5;"/><rect fill="#FEFECE" filter="url(#fbjgb33lp05d3)" height="33.9688" rx="12.5" ry="12.5" style="stroke: #A80036; stroke-width: 1.5;" width="121" x="317.7406" y="312.9531"/><text fill="#000000" font-family="sans-serif" font-size="12" lengthAdjust="spacingAndGlyphs" textLength="101" x="327.7406" y="334.0918">Process controls</text><polygon fill="#FEFECE" filter="url(#fbjgb33lp05d3)" points="378.2406,387.9531,390.2406,399.9531,378.2406,411.9531,366.2406,399.9531,378.2406,387.9531" style="stroke: #A80036; stroke-width: 1.5;"/><rect fill="#000000" filter="url(#fbjgb33lp05d3)" height="8" style="stroke: none; stroke-width: 1.0;" width="80" x="281.2406" y="465.9531"/><rect fill="#000000" filter="url(#fbjgb33lp05d3)" height="8" style="stroke: none; stroke-width: 1.0;" width="80" x="252.2406" y="755.9531"/><polygon fill="#FEFECE" filter="url(#fbjgb33lp05d3)" points="321.2406,527.9531,333.2406,539.9531,321.2406,551.9531,309.2406,539.9531,321.2406,527.9531" style="stroke: #A80036; stroke-width: 1.5;"/><rect fill="#FEFECE" filter="url(#fbjgb33lp05d3)" height="33.9688" rx="12.5" ry="12.5" style="stroke: #A80036; stroke-width: 1.5;" width="102" x="182.2406" y="605.9531"/><text fill="#000000" font-family="sans-serif" font-size="12" lengthAdjust="spacingAndGlyphs" textLength="82" x="192.2406" y="627.0918">Page.onPost()</text><rect fill="#FEFECE" filter="url(#fbjgb33lp05d3)" height="33.9688" rx="12.5" ry="12.5" style="stroke: #A80036; stroke-width: 1.5;" width="120" x="232.2406" y="680.9531"/><text fill="#000000" font-family="sans-serif" font-size="12" lengthAdjust="spacingAndGlyphs" textLength="100" x="242.2406" y="702.0918">Page.onRender()</text><rect fill="#FEFECE" filter="url(#fbjgb33lp05d3)" height="33.9688" rx="12.5" ry="12.5" style="stroke: #A80036; stroke-width: 1.5;" width="98" x="304.2406" y="605.9531"/><text fill="#000000" font-family="sans-serif" font-size="12" lengthAdjust="spacingAndGlyphs" textLength="78" x="314.2406" y="627.0918">Page.onGet()</text><polygon fill="#FEFECE" filter="url(#fbjgb33lp05d3)" points="292.2406,804.9531,304.2406,816.9531,292.2406,828.9531,280.2406,816.9531,292.2406,804.9531" style="stroke: #A80036; stroke-width: 1.5;"/><rect fill="#FEFECE" filter="url(#fbjgb33lp05d3)" height="33.9688" rx="12.5" ry="12.5" style="stroke: #A80036; stroke-width: 1.5;" width="119" x="349.7406" y="848.9531"/><text fill="#000000" font-family="sans-serif" font-size="12" lengthAdjust="spacingAndGlyphs" textLength="99" x="359.7406" y="870.0918">redirect request</text><rect fill="#000000" filter="url(#fbjgb33lp05d3)" height="8" style="stroke: none; stroke-width: 1.0;" width="80" x="300.2406" y="977.9531"/><polygon fill="#FEFECE" filter="url(#fbjgb33lp05d3)" points="215.2406,907.9531,227.2406,919.9531,215.2406,931.9531,203.2406,919.9531,215.2406,907.9531" style="stroke: #A80036; stroke-width: 1.5;"/><rect fill="#FEFECE" filter="url(#fbjgb33lp05d3)" height="33.9688" rx="12.5" ry="12.5" style="stroke: #A80036; stroke-width: 1.5;" width="121" x="39.7406" y="902.9531"/><text fill="#000000" font-family="sans-serif" font-size="12" lengthAdjust="spacingAndGlyphs" textLength="101" x="49.7406" y="924.0918">Forward request</text><rect fill="#FEFECE" filter="url(#fbjgb33lp05d3)" height="33.9688" rx="12.5" ry="12.5" style="stroke: #A80036; stroke-width: 1.5;" width="155" x="262.7406" y="902.9531"/><text fill="#000000" font-family="sans-serif" font-size="12" lengthAdjust="spacingAndGlyphs" textLength="135" x="272.7406" y="924.0918">Render page template</text><rect fill="#FEFECE" filter="url(#fbjgb33lp05d3)" height="33.9688" rx="12.5" ry="12.5" style="stroke: #A80036; stroke-width: 1.5;" width="125" x="277.7406" y="1026.9531"/><text fill="#000000" font-family="sans-serif" font-size="12" lengthAdjust="spacingAndGlyphs" textLength="105" x="287.7406" y="1048.0918">Page.onDestroy()</text><ellipse cx="340.2406" cy="1111.9531" fill="none" filter="url(#fbjgb33lp05d3)" rx="10" ry="10" style="stroke: #000000; stroke-width: 1.0;"/><ellipse cx="340.7406" cy="1112.4531" fill="#000000" rx="6" ry="6" style="stroke: none; stroke-width: 1.0;"/><!--MD5=[9843cc3cce4851f1dfefd6325c51ae36]
link start to ClickServlet.handleRequest()--><path d="M153.2406,47.1331 C153.2406,56.2231 153.2406,70.4831 153.2406,82.4431 " fill="none" id="start-&gt;ClickServlet.handleRequest()" style="stroke: #A80036; stroke-width: 1.0;"/><polygon fill="#A80036" points="153.2406,87.7431,157.2406,78.7431,153.2406,82.7431,149.2406,78.7431,153.2406,87.7431" style="stroke: #A80036; stroke-width: 1.0;"/><!--MD5=[8e4cdb0bcc61bc4363d9081e3f48fc02]
link ClickServlet.handleRequest() to new Page--><path d="M153.2406,122.1541 C153.2406,132.6451 153.2406,146.4161 153.2406,157.7711 " fill="none" id="ClickServlet.handleRequest()-&gt;new Page" style="stroke: #A80036; stroke-width: 1.0;"/><polygon fill="#A80036" points="153.2406,162.7971,157.2406,153.7971,153.2406,157.7971,149.2406,153.7971,153.2406,162.7971" style="stroke: #A80036; stroke-width: 1.0;"/><!--MD5=[7267ca2b0ab6bd4a5109a6582e031d92]
link new Page to #60794--><path d="M153.2406,197.1541 C153.2406,209.1021 153.2406,225.3041 153.2406,237.3471 " fill="none" id="new Page-&gt;#60794" style="stroke: #A80036; stroke-width: 1.0;"/><polygon fill="#A80036" points="153.2406,242.5571,157.2406,233.5571,153.2406,237.5571,149.2406,233.5571,153.2406,242.5571" style="stroke: #A80036; stroke-width: 1.0;"/><text fill="#000000" font-family="sans-serif" font-size="11" lengthAdjust="spacingAndGlyphs" textLength="127" x="6" y="235.0321">Page.onSecurityCheck</text><!--MD5=[605407978bb6746ec31e8e4dbac4f274]
link #60794 to Page.onInit()--><path d="M165.2856,254.9531 C175.4486,254.9531 190.7446,254.9531 206.0096,254.9531 " fill="none" id="#60794-&gt;Page.onInit()" style="stroke: #A80036; stroke-width: 1.0;"/><polygon fill="#A80036" points="211.1776,254.9531,202.1776,250.9531,206.1776,254.9531,202.1776,258.9531,211.1776,254.9531" style="stroke: #A80036; stroke-width: 1.0;"/><text fill="#000000" font-family="sans-serif" font-size="11" lengthAdjust="spacingAndGlyphs" textLength="23" x="176.7406" y="249.1636">true</text><!--MD5=[f259e038ddf30b66a907da0b16653bb3]
link Page.onInit() to #60799--><path d="M260.9036,272.1541 C262.9636,284.6851 265.7926,301.8951 267.7956,314.0781 " fill="none" id="Page.onInit()-&gt;#60799" style="stroke: #A80036; stroke-width: 1.0;"/><polygon fill="#A80036" points="268.6516,319.2871,271.1382,309.7573,267.8403,314.3534,263.2442,311.0555,268.6516,319.2871" style="stroke: #A80036; stroke-width: 1.0;"/><text fill="#000000" font-family="sans-serif" font-size="11" lengthAdjust="spacingAndGlyphs" textLength="59" x="191.3868" y="307.9427">isForward?</text><!--MD5=[221672b3ed24c325c28abe47af6d6f11]
link #60799 to Process controls--><path d="M282.6296,329.9531 C290.3176,329.9531 300.8596,329.9531 312.1456,329.9531 " fill="none" id="#60799-&gt;Process controls" style="stroke: #A80036; stroke-width: 1.0;"/><polygon fill="#A80036" points="317.3756,329.9531,308.3756,325.9531,312.3756,329.9531,308.3756,333.9531,317.3756,329.9531" style="stroke: #A80036; stroke-width: 1.0;"/><text fill="#000000" font-family="sans-serif" font-size="11" lengthAdjust="spacingAndGlyphs" textLength="14" x="292.9906" y="324.1636">no</text><!--MD5=[0f20cf3e2a748a83b6e4fb77d716209d]
link Process controls to #60804--><path d="M378.2406,347.0681 C378.2406,357.8691 378.2406,372.0351 378.2406,382.8361 " fill="none" id="Process controls-&gt;#60804" style="stroke: #A80036; stroke-width: 1.0;"/><polygon fill="#A80036" points="378.2406,387.8381,382.2406,378.8381,378.2406,382.8381,374.2406,378.8381,378.2406,387.8381" style="stroke: #A80036; stroke-width: 1.0;"/><text fill="#000000" font-family="sans-serif" font-size="11" lengthAdjust="spacingAndGlyphs" textLength="120" x="238.3656" y="380.1813">continue processing?</text><!--MD5=[a2f2acc6cc37a5d74300265559ae7922]
link #60804 to RENDERING--><path d="M372.9806,407.2281 C362.2836,419.9901 338.0716,448.8731 326.9826,462.1031 " fill="none" id="#60804-&gt;RENDERING" style="stroke: #A80036; stroke-width: 1.0;"/><polygon fill="#A80036" points="323.7636,465.9431,332.6115,461.617,326.9763,462.1119,326.4815,456.4767,323.7636,465.9431" style="stroke: #A80036; stroke-width: 1.0;"/><text fill="#000000" font-family="sans-serif" font-size="11" lengthAdjust="spacingAndGlyphs" textLength="21" x="352.2406" y="443.1636">yes</text><!--MD5=[653b7f699fdab9bf6c203c9a147d8992]
link #60804 to REDIRECT_CHECK--><path d="M385.4306,405.2131 C400.3396,414.6521 433.2406,438.8891 433.2406,468.9531 C433.2406,468.9531 433.2406,468.9531 433.2406,698.9531 C433.2406,741.3031 378.7176,754.1841 337.4816,757.8701 " fill="none" id="#60804-&gt;REDIRECT_CHECK" style="stroke: #A80036; stroke-width: 1.0;"/><polygon fill="#A80036" points="332.2686,758.2941,341.5636,761.5506,337.2521,757.8884,340.9143,753.5769,332.2686,758.2941" style="stroke: #A80036; stroke-width: 1.0;"/><text fill="#000000" font-family="sans-serif" font-size="11" lengthAdjust="spacingAndGlyphs" textLength="14" x="434.2406" y="583.1636">no</text><!--MD5=[9fa2a57a3b8145c55593f36031eacc93]
link #60799 to RENDERING--><path d="M273.2786,339.1721 C282.3306,363.6681 309.0616,435.9991 318.1646,460.6301 " fill="none" id="#60799-&gt;RENDERING" style="stroke: #A80036; stroke-width: 1.0;"/><polygon fill="#A80036" points="319.9956,465.5851,320.6285,455.7566,318.2627,460.895,313.1243,458.5293,319.9956,465.5851" style="stroke: #A80036; stroke-width: 1.0;"/><text fill="#000000" font-family="sans-serif" font-size="11" lengthAdjust="spacingAndGlyphs" textLength="21" x="300.2406" y="404.1636">yes</text><!--MD5=[e52c6b8be4a590415c49cd3cce57c274]
link RENDERING to #60812--><path d="M321.2406,474.2331 C321.2406,482.8141 321.2406,506.3811 321.2406,522.5751 " fill="none" id="RENDERING-&gt;#60812" style="stroke: #A80036; stroke-width: 1.0;"/><polygon fill="#A80036" points="321.2406,527.7531,325.2406,518.7531,321.2406,522.7531,317.2406,518.7531,321.2406,527.7531" style="stroke: #A80036; stroke-width: 1.0;"/><text fill="#000000" font-family="sans-serif" font-size="11" lengthAdjust="spacingAndGlyphs" textLength="42" x="269.0031" y="517.2872">is Post?</text><!--MD5=[ef09f3e1394f91cb99147438063c915a]
link #60812 to Page.onPost()--><path d="M315.4666,546.2681 C303.3506,557.4201 274.7356,583.7581 254.6856,602.2131 " fill="none" id="#60812-&gt;Page.onPost()" style="stroke: #A80036; stroke-width: 1.0;"/><polygon fill="#A80036" points="250.7976,605.7931,260.1286,602.6414,254.4766,602.4071,254.7109,596.7551,250.7976,605.7931" style="stroke: #A80036; stroke-width: 1.0;"/><text fill="#000000" font-family="sans-serif" font-size="11" lengthAdjust="spacingAndGlyphs" textLength="21" x="285.2406" y="583.1636">yes</text><!--MD5=[1b66f207618bdab3497afc4703026f8c]
link Page.onPost() to render--><path d="M246.3346,640.1541 C255.0426,650.9281 266.5466,665.1621 275.8606,676.6861 " fill="none" id="Page.onPost()-&gt;render" style="stroke: #A80036; stroke-width: 1.0;"/><polygon fill="#A80036" points="279.1836,680.7971,276.6352,671.2837,276.0398,676.9091,270.4144,676.3138,279.1836,680.7971" style="stroke: #A80036; stroke-width: 1.0;"/><!--MD5=[531fb059dfadf2caceee1ad554904a10]
link render to REDIRECT_CHECK--><path d="M292.2406,715.0321 C292.2406,726.4221 292.2406,741.2521 292.2406,750.4351 " fill="none" id="render-&gt;REDIRECT_CHECK" style="stroke: #A80036; stroke-width: 1.0;"/><polygon fill="#A80036" points="292.2406,755.5611,296.2406,746.5611,292.2406,750.5611,288.2406,746.5611,292.2406,755.5611" style="stroke: #A80036; stroke-width: 1.0;"/><!--MD5=[80ceeb5b92a6838abde254a6d18815d1]
link #60812 to Page.onGet()--><path d="M324.4256,549.0161 C329.1536,560.9831 338.1896,583.8551 344.8876,600.8091 " fill="none" id="#60812-&gt;Page.onGet()" style="stroke: #A80036; stroke-width: 1.0;"/><polygon fill="#A80036" points="346.8836,605.8621,347.2978,596.022,345.0469,601.2117,339.8572,598.9608,346.8836,605.8621" style="stroke: #A80036; stroke-width: 1.0;"/><text fill="#000000" font-family="sans-serif" font-size="11" lengthAdjust="spacingAndGlyphs" textLength="14" x="338.2406" y="583.1636">no</text><!--MD5=[3fb9788c4256cc5bfe605eeb51329e9d]
link Page.onGet() to render--><path d="M339.7026,640.1541 C330.6996,650.9281 318.8056,665.1621 309.1766,676.6861 " fill="none" id="Page.onGet()-&gt;render" style="stroke: #A80036; stroke-width: 1.0;"/><polygon fill="#A80036" points="305.7406,680.7971,314.5815,676.4568,308.9472,676.9607,308.4433,671.3263,305.7406,680.7971" style="stroke: #A80036; stroke-width: 1.0;"/><!--MD5=[9f3c93f36bdc489898441db663f83d3c]
link #60794 to REDIRECT_CHECK--><path d="M152.7566,266.8341 C152.1646,281.0961 151.2406,306.8931 151.2406,328.9531 C151.2406,328.9531 151.2406,328.9531 151.2406,698.9531 C151.2406,741.3031 205.7636,754.1841 246.9996,757.8701 " fill="none" id="#60794-&gt;REDIRECT_CHECK" style="stroke: #A80036; stroke-width: 1.0;"/><polygon fill="#A80036" points="252.2126,758.2941,243.5669,753.5769,247.2291,757.8884,242.9177,761.5506,252.2126,758.2941" style="stroke: #A80036; stroke-width: 1.0;"/><text fill="#000000" font-family="sans-serif" font-size="11" lengthAdjust="spacingAndGlyphs" textLength="28" x="152.2406" y="505.1636">false</text><!--MD5=[70b4bf3c3c75ed8344284027a9366ac4]
link REDIRECT_CHECK to #60824--><path d="M292.2406,764.2291 C292.2406,771.0281 292.2406,787.0731 292.2406,799.5051 " fill="none" id="REDIRECT_CHECK-&gt;#60824" style="stroke: #A80036; stroke-width: 1.0;"/><polygon fill="#A80036" points="292.2406,804.5741,296.2406,795.5741,292.2406,799.5741,288.2406,795.5741,292.2406,804.5741" style="stroke: #A80036; stroke-width: 1.0;"/><text fill="#000000" font-family="sans-serif" font-size="11" lengthAdjust="spacingAndGlyphs" textLength="70" x="206.0531" y="794.4704">Do redirect?</text><!--MD5=[2759507b288b1002a813d120198cdb01]
link #60824 to redirect request--><path d="M300.2826,821.1841 C313.4956,826.4921 340.7256,837.4301 364.6566,847.0431 " fill="none" id="#60824-&gt;redirect request" style="stroke: #A80036; stroke-width: 1.0;"/><polygon fill="#A80036" points="369.3936,848.9461,362.5338,841.8791,364.7541,847.082,359.5512,849.3024,369.3936,848.9461" style="stroke: #A80036; stroke-width: 1.0;"/><text fill="#000000" font-family="sans-serif" font-size="11" lengthAdjust="spacingAndGlyphs" textLength="21" x="312.4626" y="832.1246">yes</text><!--MD5=[8c09a5a3fd1d167ed9e4ab1437a021a2]
link redirect request to BEFORE_DESTROY--><path d="M420.4006,883.0021 C429.2536,897.9041 438.5686,920.2431 428.2406,936.9531 C413.9416,960.0901 383.3836,971.4671 362.3256,976.7631 " fill="none" id="redirect request-&gt;BEFORE_DESTROY" style="stroke: #A80036; stroke-width: 1.0;"/><polygon fill="#A80036" points="357.4576,977.9221,367.1395,979.728,362.3216,976.7636,365.2859,971.9457,357.4576,977.9221" style="stroke: #A80036; stroke-width: 1.0;"/><!--MD5=[4f0b7b6e0259cf154b3a09aa9bbeaaa4]
link #60824 to #60831--><path d="M287.4236,824.2711 C274.5136,841.2051 239.0416,887.7331 223.1376,908.5951 " fill="none" id="#60824-&gt;#60831" style="stroke: #A80036; stroke-width: 1.0;"/><polygon fill="#A80036" points="220.0556,912.6371,228.6935,907.9056,223.0873,908.6611,222.3318,903.0549,220.0556,912.6371" style="stroke: #A80036; stroke-width: 1.0;"/><text fill="#000000" font-family="sans-serif" font-size="11" lengthAdjust="spacingAndGlyphs" textLength="70" x="169.3384" y="920.8756">Do Forward?</text><!--MD5=[d59cea5b854a9e4c44aeb2745acf1018]
reverse link Forward request to #60831--><path d="M166.0096,919.9531 C180.1596,919.9531 193.6286,919.9531 202.8896,919.9531 " fill="none" id="Forward request&lt;-#60831" style="stroke: #A80036; stroke-width: 1.0;"/><polygon fill="#A80036" points="160.7716,919.9531,169.7716,923.9531,165.7716,919.9531,169.7716,915.9531,160.7716,919.9531" style="stroke: #A80036; stroke-width: 1.0;"/><text fill="#000000" font-family="sans-serif" font-size="11" lengthAdjust="spacingAndGlyphs" textLength="21" x="171.4906" y="914.1636">yes</text><!--MD5=[fdb647f30167129099f8dd933b3b0438]
link Forward request to BEFORE_DESTROY--><path d="M160.8026,936.0941 C214.5816,949.5381 289.6696,968.3101 323.0596,976.6581 " fill="none" id="Forward request-&gt;BEFORE_DESTROY" style="stroke: #A80036; stroke-width: 1.0;"/><polygon fill="#A80036" points="328.0506,977.9051,320.2899,971.8412,323.2,976.6921,318.3491,979.6022,328.0506,977.9051" style="stroke: #A80036; stroke-width: 1.0;"/><!--MD5=[3e87efc0765ab02b128b80ab3a0e23b0]
link #60831 to Render page template--><path d="M227.6826,919.9531 C235.3556,919.9531 245.9336,919.9531 257.5536,919.9531 " fill="none" id="#60831-&gt;Render page template" style="stroke: #A80036; stroke-width: 1.0;"/><polygon fill="#A80036" points="262.5926,919.9531,253.5926,915.9531,257.5926,919.9531,253.5926,923.9531,262.5926,919.9531" style="stroke: #A80036; stroke-width: 1.0;"/><text fill="#000000" font-family="sans-serif" font-size="11" lengthAdjust="spacingAndGlyphs" textLength="14" x="237.9906" y="914.1636">no</text><!--MD5=[bc03185f8d75878528e80e1593c511dd]
link Render page template to BEFORE_DESTROY--><path d="M340.2406,937.0321 C340.2406,948.4221 340.2406,963.2521 340.2406,972.4351 " fill="none" id="Render page template-&gt;BEFORE_DESTROY" style="stroke: #A80036; stroke-width: 1.0;"/><polygon fill="#A80036" points="340.2406,977.5611,344.2406,968.5611,340.2406,972.5611,336.2406,968.5611,340.2406,977.5611" style="stroke: #A80036; stroke-width: 1.0;"/><!--MD5=[5b04f114e9641b095f126177f2131d69]
link BEFORE_DESTROY to Page.onDestroy()--><path d="M340.2406,986.1791 C340.2406,992.8401 340.2406,1008.6011 340.2406,1021.8311 " fill="none" id="BEFORE_DESTROY-&gt;Page.onDestroy()" style="stroke: #A80036; stroke-width: 1.0;"/><polygon fill="#A80036" points="340.2406,1026.9382,344.2406,1017.9382,340.2406,1021.9382,336.2406,1017.9382,340.2406,1026.9382" style="stroke: #A80036; stroke-width: 1.0;"/><!--MD5=[4b945f0d4b49186e1c7b48d2cd702fc6]
link Page.onDestroy() to end--><path d="M340.2406,1061.2677 C340.2406,1072.1899 340.2406,1086.4214 340.2406,1096.8524 " fill="none" id="Page.onDestroy()-&gt;end" style="stroke: #A80036; stroke-width: 1.0;"/><polygon fill="#A80036" points="340.2406,1101.9231,344.2406,1092.9231,340.2406,1096.9231,336.2406,1092.9231,340.2406,1101.9231" style="stroke: #A80036; stroke-width: 1.0;"/><!--MD5=[bf7b3c6efbc0941fa822f1cb88c33397]
@startuml
title Servlet Container

(*) - -> "ClickServlet.handleRequest()"
- -> "new Page"

if "Page.onSecurityCheck" then
  ->[true] "Page.onInit()"
  
  if "isForward?" then
   ->[no] "Process controls"
   
   if "continue processing?" then
	 - ->[yes] ===RENDERING===
   else
	 - ->[no] ===REDIRECT_CHECK===
   endif
   
  else
   - ->[yes] ===RENDERING===
  endif
  
  if "is Post?" then
	- ->[yes] "Page.onPost()"
	- -> "Page.onRender()" as render
	- -> ===REDIRECT_CHECK===
  else
	- ->[no] "Page.onGet()"
	- -> render
  endif
  
else
  - ->[false] ===REDIRECT_CHECK===
endif

if "Do redirect?" then
 ->[yes] "redirect request"
 - -> ==BEFORE_DESTROY===
else
 if "Do Forward?" then
  -left->[yes] "Forward request"
  - -> ==BEFORE_DESTROY===
 else
  -right->[no] "Render page template"
  - -> ==BEFORE_DESTROY===
 endif
endif

- -> "Page.onDestroy()"
- ->(*)
@enduml

PlantUML version 1.2020.16beta7(Unknown compile time)
(GPL source distribution)
Java Runtime: Java(TM) SE Runtime Environment
JVM: Java HotSpot(TM) 64-Bit Server VM
Default Encoding: UTF-8
Language: en
Country: US
--></g></svg>